<svg width="133" height="44" viewBox="0 0 133 44" fill="none" xmlns="http://www.w3.org/2000/svg">
<path d="M32.5602 15.4605H17.1064V20.0462H28.0664C27.5252 26.4771 22.175 29.2192 17.125 29.2192C10.6644 29.2192 5.02626 24.1357 5.02626 17.0103C5.02626 10.0694 10.4008 4.72354 17.1394 4.72354C22.3385 4.72354 25.4016 8.03809 25.4016 8.03809L28.6128 4.71329C28.6128 4.71329 24.4915 0.125 16.9754 0.125C7.40421 0.125 0 8.20312 0 16.9284C0 25.4787 6.96465 33.8153 17.2194 33.8153C26.2379 33.8153 32.8399 27.6368 32.8399 18.501C32.8399 16.5733 32.5597 15.4594 32.5597 15.4594L32.5602 15.4605Z" fill="#F5F5F5"/>
<path d="M45.2187 12.1395C38.8774 12.1395 34.333 17.0972 34.333 22.879C34.333 28.7463 38.7411 33.7958 45.293 33.7958C51.2242 33.7958 56.0839 29.2622 56.0839 23.0048C56.0839 15.8332 50.4312 12.1395 45.2187 12.1395ZM45.2816 16.3929C48.3999 16.3929 51.3548 18.9138 51.3548 22.9765C51.3548 26.9529 48.4124 29.5455 45.2673 29.5455C41.8115 29.5455 39.0853 26.778 39.0853 22.9449C39.0853 19.194 41.778 16.3929 45.2816 16.3929Z" fill="#F5F5F5"/>
<path d="M68.893 12.1395C62.5522 12.1395 58.0078 17.0972 58.0078 22.879C58.0078 28.7463 62.4155 33.7958 68.9678 33.7958C74.8992 33.7958 79.7582 29.2622 79.7582 23.0048C79.7582 15.8332 74.1061 12.1395 68.893 12.1395ZM68.9565 16.3929C72.0744 16.3929 75.0297 18.9138 75.0297 22.9765C75.0297 26.9529 72.0872 29.5455 68.942 29.5455C65.4864 29.5455 62.7601 26.778 62.7601 22.9449C62.7601 19.194 65.4523 16.3929 68.9565 16.3929Z" fill="#F5F5F5"/>
<path d="M92.1138 12.1518C86.2936 12.1518 81.7188 17.2498 81.7188 22.9717C81.7188 29.4892 87.0225 33.8112 92.0137 33.8112C95.0995 33.8112 96.7408 32.5864 97.9522 31.1798V33.3154C97.9522 37.0508 95.6842 39.288 92.2604 39.288C88.9527 39.288 87.2939 36.829 86.7172 35.4333L82.5556 37.1731C84.0322 40.2947 87.004 43.5503 92.2944 43.5503C98.0817 43.5503 102.492 39.9051 102.492 32.2603V12.8029H97.9522V14.6371C96.5561 13.133 94.6471 12.1522 92.1138 12.1522V12.1518ZM92.5354 16.3964C95.389 16.3964 98.319 18.8333 98.319 22.9944C98.319 27.2242 95.3951 29.5552 92.4719 29.5552C89.369 29.5552 86.4819 27.0353 86.4819 23.0347C86.4819 18.8777 89.4805 16.3964 92.5354 16.3964Z" fill="#F5F5F5"/>
<path d="M122.677 12.1251C117.187 12.1251 112.577 16.4937 112.577 22.9388C112.577 29.7596 117.715 33.8048 123.205 33.8048C127.786 33.8048 130.598 31.2982 132.276 29.0523L128.533 26.5619C127.562 28.0694 125.937 29.5424 123.228 29.5424C120.184 29.5424 118.784 27.8754 117.917 26.261L132.436 20.2364L131.682 18.4708C130.28 15.0133 127.007 12.1261 122.678 12.1261L122.677 12.1251ZM122.866 16.2898C124.845 16.2898 126.269 17.3413 126.873 18.6028L117.177 22.6555C116.759 19.5176 119.732 16.2898 122.866 16.2898Z" fill="#F5F5F5"/>
<path d="M105.655 33.1617H110.425V1.24512H105.655V33.1617Z" fill="#F5F5F5"/>
</svg>
