<svg width="153" height="44" viewBox="0 0 153 44" fill="none" xmlns="http://www.w3.org/2000/svg">
<path d="M152.724 39.5874C152.724 41.9851 150.787 43.9286 148.397 43.9286H114.135C111.745 43.9286 109.809 41.9851 109.809 39.5874V4.84518C109.809 2.44763 111.745 0.503906 114.135 0.503906H148.397C150.787 0.503906 152.724 2.44763 152.724 4.84518V39.5874Z" fill="#F5F5F5"/>
<path d="M0 9.25952H5.7738V30.0006H15.954V34.8627H0V9.25952Z" fill="#F5F5F5"/>
<path d="M23.9672 11.1214C23.9672 12.7164 22.7898 14.0082 20.8526 14.0082C19.0292 14.0082 17.8516 12.7164 17.8516 11.1214C17.8516 9.48799 19.0674 8.23444 20.9287 8.23444C22.7898 8.23444 23.9295 9.48799 23.9672 11.1214ZM18.0036 34.8628V16.2874H23.7777V34.8628H18.0036Z" fill="#F5F5F5"/>
<path d="M27.2331 22.2132C27.2331 19.8963 27.1572 17.9592 27.0811 16.2873H32.0951L32.3615 18.8705H32.4756C33.235 17.6548 35.0963 15.8695 38.2109 15.8695C42.0099 15.8695 44.8591 18.4149 44.8591 23.8847V34.8629H39.0847V24.5684C39.0847 22.1754 38.2494 20.5422 36.1602 20.5422C34.5644 20.5422 33.6149 21.6438 33.1968 22.7071C33.0451 23.087 33.0074 23.6187 33.0074 24.1508V34.8629H27.2331V22.2132Z" fill="#F5F5F5"/>
<path d="M54.0878 24.1126H54.1637C54.5818 23.3148 55.0377 22.5553 55.4933 21.8716L59.2536 16.2873H66.2051L59.5576 23.8086L67.1546 34.8629H60.0516L55.5307 27.2272L54.0878 29.0506V34.8629H48.3135V7.89246H54.0878V24.1126Z" fill="#F5F5F5"/>
<path d="M71.6371 27.4175C71.7891 29.8105 74.1819 30.9503 76.8791 30.9503C78.8545 30.9503 80.4497 30.6841 82.0078 30.1524L82.767 34.0651C80.8675 34.8629 78.5507 35.2427 76.0436 35.2427C69.7376 35.2427 66.1289 31.5962 66.1289 25.784C66.1289 21.0739 69.0543 15.8695 75.5112 15.8695C81.5134 15.8695 83.7926 20.5422 83.7926 25.1383C83.7926 26.1258 83.6783 26.9994 83.6025 27.4175H71.6371ZM78.4364 23.4667C78.4364 22.0613 77.8288 19.706 75.1698 19.706C72.7386 19.706 71.7508 21.9479 71.5989 23.4667H78.4364Z" fill="#F5F5F5"/>
<path d="M104.075 7.89246V29.317C104.075 31.406 104.151 33.6095 104.227 34.8629H99.0986L98.8709 32.1658H98.7575C97.6178 34.2169 95.3383 35.2812 92.9454 35.2812C88.5392 35.2812 85.0061 31.5203 85.0061 25.746C84.9685 19.4781 88.8813 15.8318 93.325 15.8318C95.6422 15.8318 97.3897 16.6672 98.2251 17.9207H98.3011V7.89246H104.075ZM98.3011 24.1508C98.3011 23.8465 98.3011 23.4289 98.2251 23.0869C97.8836 21.5678 96.6303 20.2761 94.8449 20.2761C92.1853 20.2761 90.8558 22.6312 90.8558 25.5563C90.8558 28.7086 92.4138 30.6841 94.8068 30.6841C96.4781 30.6841 97.8454 29.5449 98.1874 27.9117C98.2636 27.4936 98.3011 27.0381 98.3011 26.5819V24.1508Z" fill="#F5F5F5"/>
<path d="M123.769 11.1212C123.769 12.7162 122.591 14.008 120.654 14.008C118.831 14.008 117.653 12.7162 117.653 11.1212C117.653 9.48781 118.869 8.23425 120.73 8.23425C122.591 8.23425 123.731 9.48781 123.769 11.1212ZM117.805 34.8626V16.2872H123.579V34.8626H117.805Z" fill="#1668E8"/>
<path d="M127.034 22.213C127.034 19.8961 126.959 17.9591 126.883 16.2872H131.897L132.163 18.8704H132.277C133.036 17.6546 134.898 15.8694 138.013 15.8694C141.811 15.8694 144.66 18.4147 144.66 23.8846V34.8627H138.886V24.5683C138.886 22.1753 138.05 20.5421 135.961 20.5421C134.366 20.5421 133.417 21.6436 132.999 22.7069C132.846 23.0869 132.808 23.6186 132.808 24.1507V34.8627H127.034V22.213Z" fill="#1668E8"/>
</svg>
