<svg width="164" height="25" viewBox="0 0 164 25" fill="none" xmlns="http://www.w3.org/2000/svg">
<path fill-rule="evenodd" clip-rule="evenodd" d="M89.7748 11.3613C89.7748 11.3613 88.1832 10.3764 87.1971 9.99532C87.1971 9.99532 84.1485 8.58229 83.5435 7.91002C83.5435 7.91002 82.3563 6.79008 83.0509 5.49052C83.0509 5.49052 83.3423 4.63945 84.598 4.63945C84.598 4.63945 86.2327 4.72932 86.2327 6.07286V7.96822H92.0911L92.08 5.17693C92.08 5.17693 92.5304 0.60466 85.1794 0.404404C85.1794 0.404404 79.3986 0.024307 77.7404 3.1385C77.7404 3.1385 77.0895 3.83229 77.0895 6.25163V7.99986C77.0895 7.99986 77.0232 10.0179 78.0538 11.3163C78.0538 11.3163 78.6364 12.1675 80.0709 13.1085C80.0709 13.1085 82.9836 14.6779 84.7307 15.5749C84.7307 15.5749 86.4964 16.5824 86.2633 18.1843C86.2633 18.1843 86.1203 19.8304 84.4162 19.763C84.4162 19.763 82.8579 19.6925 82.8579 18.0792V16.1849H76.6155V18.9375C76.6155 18.9375 76.4398 24.2004 84.4631 24.2004C84.4631 24.2004 92.1259 24.3566 92.4844 18.7985V16.5589C92.4844 16.5589 92.7543 13.1534 89.7748 11.3613Z" fill="#F5F5F5"/>
<path fill-rule="evenodd" clip-rule="evenodd" d="M59.7831 1.05829L57.8215 13.3516H57.3629L55.4887 1.1684H45.7026L45.2129 23.4297H51.007L51.0763 6.65649H51.5317L54.6031 23.4261H60.6986L63.7324 6.66284H64.1357L64.2756 23.4297H70.0999L69.4735 1.05829H59.7831Z" fill="#F5F5F5"/>
<path fill-rule="evenodd" clip-rule="evenodd" d="M25.2925 1.15063L21.4375 23.4044H27.6747L29.9579 6.14957H30.4712L32.7538 23.4044H38.9904L35.1362 1.15063H25.2925Z" fill="#F5F5F5"/>
<path fill-rule="evenodd" clip-rule="evenodd" d="M156.175 11.0543V14.3381H157.774V17.8621C157.774 19.5836 156.302 19.6154 156.302 19.6154C154.512 19.6154 154.58 17.9785 154.58 17.9785V5.78934C154.58 4.53363 156.167 4.46628 156.167 4.46628C157.693 4.46628 157.704 5.96405 157.704 5.96405V7.8175H163.577C163.768 4.20059 163.047 3.32495 163.047 3.32495C161.59 0.0533133 156.079 0.232207 156.079 0.232207C147.611 0.232207 148.549 6.73035 148.549 6.73035V18.5159C148.731 24.6105 157.076 23.9924 157.218 23.9842C160.931 23.5735 162.051 22.3944 162.051 22.3944C163.083 21.6282 163.35 20.5676 163.35 20.5676C163.643 19.9494 163.718 17.9785 163.718 17.9785V11.0543H156.175Z" fill="#F5F5F5"/>
<path fill-rule="evenodd" clip-rule="evenodd" d="M136.708 14.6764H136.453L130.492 1.06342H123.363V23.4334H129.166L128.818 9.8219H129.076L135.251 23.4334H142.166V1.06201H136.29L136.708 14.6764Z" fill="#F5F5F5"/>
<path fill-rule="evenodd" clip-rule="evenodd" d="M109.195 17.8586C109.195 17.8586 109.28 19.6946 107.578 19.6946C107.578 19.6946 105.787 19.7906 105.787 17.9046L105.77 1.07666H99.4032V17.7707C99.4032 17.7707 98.7502 24.0891 107.667 24.0891C107.667 24.0891 115.415 24.181 115.415 18.0598V1.07773H109.195V17.8586Z" fill="#F5F5F5"/>
<path fill-rule="evenodd" clip-rule="evenodd" d="M13.1577 11.3613C13.1577 11.3613 11.5669 10.3764 10.5809 9.99529C10.5809 9.99529 7.53314 8.58434 6.92938 7.90999C6.92938 7.90999 5.74109 6.78917 6.43701 5.49154C6.43701 5.49154 6.72699 4.6404 7.98169 4.6404C7.98169 4.6404 9.61743 4.72936 9.61743 6.07283V7.96819H15.4779L15.4658 5.17586C15.4658 5.17586 15.9142 0.604604 8.56512 0.404378C8.56512 0.404378 8.01129 0.368581 7.19916 0.409535C7.19916 0.409535 2.7475 0.648579 1.15564 3.09047C1.14746 3.10784 1.13428 3.12212 1.12512 3.13848C1.12512 3.13848 0.475159 3.8312 0.475159 6.25161V7.99978C0.475159 7.99978 0.407837 10.0167 1.43976 11.3164C1.43976 11.3164 2.02112 12.1674 3.45667 13.1084C3.45667 13.1084 6.36743 14.6768 8.11554 15.5739C8.11554 15.5739 9.8819 16.5813 9.64917 18.1843C9.64917 18.1843 9.505 19.8304 7.80188 19.7629C7.80188 19.7629 6.24384 19.6925 6.24384 18.0792V16.1839H0.000305213V18.9375C0.000305213 18.9375 -0.174561 24.2003 7.84686 24.2003C7.84686 24.2003 15.5095 24.3566 15.8691 18.7985V16.5599C15.8691 16.5599 16.1379 13.1534 13.1577 11.3613Z" fill="#F5F5F5"/>
</svg>
