<svg width="86" height="29" viewBox="0 0 86 29" fill="none" xmlns="http://www.w3.org/2000/svg">
<path d="M37.1473 28.2762H30.1553L34.5255 1.41785H41.5181L37.1473 28.2762Z" fill="#F5F5F5"/>
<path d="M24.2731 1.41815L17.6062 19.8905L16.8181 15.9125L16.8188 15.914L14.4653 3.83711C14.4653 3.83711 14.1815 1.41815 11.1484 1.41815H0.128594L0 1.8722C0 1.8722 3.3708 2.57339 7.31346 4.9435L13.3884 28.276H20.6738L31.7985 1.41815H24.2731Z" fill="#F5F5F5"/>
<path d="M79.271 28.276H85.6915L80.0936 1.41815H74.472C71.8757 1.41815 71.2435 3.4197 71.2435 3.4197L60.8164 28.276H68.104L69.5624 24.2873H78.4513L79.271 28.276ZM71.5768 18.7754L75.2515 8.7246L77.3184 18.7754H71.5768Z" fill="#F5F5F5"/>
<path d="M61.3633 7.87682L62.3605 2.10854C62.3605 2.10854 59.2813 0.9375 56.0715 0.9375C52.6015 0.9375 44.362 2.45482 44.362 9.8288C44.362 16.7681 54.0326 16.8543 54.0326 20.4975C54.0326 24.1407 45.3585 23.4898 42.4963 21.1915L41.4561 27.2213C41.4561 27.2213 44.5776 28.7386 49.3493 28.7386C54.1203 28.7386 61.3195 26.2665 61.3195 19.5434C61.3195 12.5603 51.5613 11.9101 51.5613 8.87473C51.5613 5.83791 58.3711 6.22802 61.3633 7.87682Z" fill="#F5F5F5"/>
<path d="M16.8188 15.9133L14.4653 3.83644C14.4653 3.83644 14.1815 1.41748 11.1484 1.41748H0.128594L0 1.87153C0 1.87153 5.29687 2.97001 10.3782 7.08231C15.2347 11.0136 16.8188 15.9133 16.8188 15.9133Z" fill="#F5F5F5"/>
</svg>
