<svg width="155" height="52" viewBox="0 0 155 52" fill="none" xmlns="http://www.w3.org/2000/svg">
<path d="M91.1105 15.6063H91.0994C85.2757 15.6063 80.5635 20.3298 80.5635 26.1425C80.5635 31.9663 85.2757 36.6898 91.0994 36.6898C96.9231 36.6898 101.646 31.9774 101.646 26.1536C101.646 20.3298 96.9342 15.6063 91.1105 15.6063ZM95.5672 30.6215C93.0888 33.0888 89.0878 33.0777 86.6205 30.6103C84.1644 28.143 84.1644 24.1419 86.6205 21.6746C89.0878 19.1961 93.0888 19.1961 95.5672 21.6635L95.5783 21.6746C98.0567 24.1419 98.0456 28.1541 95.5672 30.6215Z" fill="#F5F5F5"/>
<path d="M78.4521 32.5321L77.3962 32.4765H67.905L80.5637 19.8175L80.5081 18.7617C80.4637 17.0612 79.0967 15.6942 77.3962 15.6497L76.3404 15.5941H60.5254L60.581 16.65C60.6588 18.3282 62.0035 19.6841 63.6928 19.7619L64.7487 19.8175H74.2399L61.5812 32.4765L61.6368 33.5323C61.6924 35.2217 63.0594 36.5887 64.7487 36.6443L65.8045 36.6999H81.6195L81.564 35.644C81.4195 33.8991 80.1858 32.6321 78.4521 32.5321Z" fill="#F5F5F5"/>
<path d="M145.947 15.6057C143.524 15.6057 141.224 16.6504 139.623 18.462C136.823 15.2834 132.088 14.6721 128.576 17.0505C127.765 16.128 125.92 15.6057 124.864 15.6057V36.7003L125.92 36.6447C127.676 36.5336 128.965 35.2888 129.032 33.5328L129.088 32.4769V25.0971L129.143 24.0413C129.143 23.3078 129.332 22.5853 129.665 21.9296C130.821 19.918 133.4 19.2289 135.422 20.3959C136.056 20.7626 136.589 21.2961 136.956 21.9296H136.945C137.29 22.5853 137.467 23.3078 137.467 24.0413L137.523 25.0971V32.4769L137.579 33.5328C137.645 35.2221 138.99 36.578 140.679 36.6447L141.735 36.7003V25.0971L141.791 24.0413C141.791 23.2967 141.969 22.5742 142.313 21.9185C143.48 19.9068 146.07 19.2178 148.081 20.3959C148.715 20.7626 149.248 21.2961 149.615 21.9296C149.948 22.5853 150.126 23.3078 150.126 24.0413L150.182 25.0971V32.4769L150.237 33.5328C150.293 35.2221 151.649 36.578 153.338 36.6447L154.394 36.7003V24.0413C154.383 19.3845 150.604 15.6057 145.947 15.6057Z" fill="#F5F5F5"/>
<path d="M120.708 18.696C118.729 16.7177 116.051 15.6063 113.25 15.6063C110.449 15.6063 107.771 16.7177 105.793 18.696C101.681 22.8193 101.681 29.4989 105.804 33.6112C109.927 37.7234 116.607 37.7234 120.719 33.6C124.842 29.4878 124.831 22.8082 120.708 18.696ZM117.718 30.6215C115.239 33.0888 111.239 33.0777 108.771 30.6103C106.315 28.143 106.315 24.1419 108.771 21.6746C111.239 19.1961 115.239 19.1961 117.718 21.6635L117.729 21.6746C120.207 24.1419 120.196 28.1541 117.718 30.6215Z" fill="#F5F5F5"/>
<path d="M0.677734 0.579773H51.8237V51.727H0.677734V0.579773Z" fill="#F5F5F5"/>
<path d="M9.11328 16.3956H42.8661V35.9009H9.11328V16.3956Z" fill="#1668E8"/>
</svg>
